<svg version="1.1" id="Слой_1" xmlns="http://www.w3.org/2000/svg" xmlns:xlink="http://www.w3.org/1999/xlink" x="0px" y="0px"
	 viewBox="0 0 300 300" style="enable-background:new 0 0 300 300;" xml:space="preserve">
<g>
	<path class="kormSvg" d="M60.5,8.4c61.2,0,122.5,0,183.7,0c11.9,16.2-0.6,34,3.4,50.9c11.2,47.3,11.3,95.3,6.2,143.4
		c-2.4,22.9-10.5,45.3-4.9,69.1c2.5,10.4-3.4,16.6-14.6,16.6c-54.7,0-109.3,0-164,0c-11.1,0-17-6.1-14.6-16.5
		c5.5-23.7-1.3-46.4-5.2-69c-10.9-62,8.5-123,5.4-184.7C55.9,14.9,58.9,11.6,60.5,8.4z M151.4,231.8c20.4,0,40.8-0.7,61.2,0.3
		c11.2,0.5,15.2-3.9,16.9-14.2c7.9-46.4,7.9-92.7,0-139.1c-1.8-10.4-6.1-14.2-17-14c-40.1,0.7-80.1,0.5-120.2,0.1
		c-9.2-0.1-14.6,1.4-16.4,11.9c-8.5,47.9-8.7,95.5,0.1,143.4c1.6,8.7,5.2,12.1,14.3,11.8C110.6,231.3,131,231.8,151.4,231.8z
		 M150.4,43.1c21.8,0,43.6,0,65.5,0c5.6,0,10.7-1.4,9.9-8.3c-0.7-6.5-6.6-4.3-10.3-4.4c-42.2-0.2-84.4-0.2-126.6,0
		c-3.8,0-9.5-1.8-9.9,4.8c-0.4,7,4.9,7.9,10.3,7.9C109.7,43.1,130,43.1,150.4,43.1z M151.5,266.5c21.1,0,42.2,0.2,63.3-0.2
		c4.2-0.1,11.4,2.9,11-5.9c-0.2-5.6-4.7-6.7-9.3-6.7c-42.9,0-85.8,0-128.7,0c-4.7,0-8.9,1.5-8.9,7.2c0,6.8,5.6,5.4,9.4,5.4
		C109.4,266.6,130.5,266.5,151.5,266.5z"/>
	<path class="kormSvg" d="M181.9,165c0.4,15.5-13.1,29.6-28.8,30c-15.6,0.4-29.8-13.1-30.1-28.7c-0.4-15.4,13.4-29.8,28.8-30.2
		C167.1,135.7,181.4,149.5,181.9,165z"/>
	<path class="kormSvg" d="M134.4,102.3c6.7,0.3,11.4,3.9,12,10.3c0.7,7.4-3.8,12.9-11.3,13.1c-7.5,0.2-12.3-4.9-12.1-12.4
		C123.1,106.8,127.9,103.3,134.4,102.3z"/>
	<path class="kormSvg" d="M182.2,113.7c-1.5,7.1-5.2,12.4-12.9,12.1c-6.6-0.2-10.7-5.2-11.1-11.3c-0.5-6.6,3.9-11.2,10.3-11.9
		C176.1,101.7,180.5,106.3,182.2,113.7z"/>
	<path class="kormSvg" d="M120.2,138.5c-1.6,6.9-4.8,10.9-11.9,10.3c-6-0.5-8.9-4.2-9.1-9.8c-0.2-6.9,3.9-11,10.3-11
		C116,127.9,119.1,132.9,120.2,138.5z"/>
	<path class="kormSvg" d="M195.6,127.7c6.2,1.3,10.3,4.6,9.9,11.5c-0.4,5.7-3.4,9.1-9.4,9.5c-7.1,0.5-11-3.8-11.2-10
		C184.7,132.5,189.1,128.6,195.6,127.7z"/>
</g>
</svg>
