<svg version="1.1" id="Слой_1" xmlns="http://www.w3.org/2000/svg" xmlns:xlink="http://www.w3.org/1999/xlink" x="0px" y="0px"
	 viewBox="0 0 300 300" style="enable-background:new 0 0 300 300;" xml:space="preserve">
<g>
	<g>
		<path class="stepSvg" d="M188.7,45.9c4-7.2,8.3-10.5,11.3-10.7c3.7,0,8.2,2.6,12.4,7c6-1.9,11.8-4,17.2-6.5
			c-8.9-12.5-20.2-19.4-31.1-18.7c-12.5,0.8-23.6,14-30.1,32.8c6.6-0.2,13.1-0.9,19.4-1.9C188.2,47.2,188.4,46.5,188.7,45.9z"/>
	</g>
	<g>
		<path class="stepSvg" d="M226.4,69.2c5.5-2.4,10.7-5,15.6-7.9c-2.3-7.5-5.2-14.2-8.6-20c-5.2,2.5-10.7,4.7-16.3,6.6
			C220.6,53.3,224,60.5,226.4,69.2z"/>
	</g>
	<g>
		<path class="stepSvg" d="M184.6,55.3c-6,0.8-12.1,1.2-18.3,1.3c-2.1,7.8-3.4,16.4-3.7,25.3c5.8,0,11.5-0.4,17-0.9
			C180.1,71.6,182,62.8,184.6,55.3z"/>
	</g>
	<g>
		<path class="stepSvg" d="M179.6,88c-5.6,0.5-11.2,0.9-17,0.9c0.1,6.7,0.8,13.6,2.1,20.5c5.9-0.1,11.6-0.5,17.2-1.2
			C180.5,101.4,179.7,94.6,179.6,88z"/>
	</g>
	<g>
		<path class="stepSvg" d="M230.1,94.9c5.8-2.7,11.4-5.8,16.4-9.2c-0.5-6.2-1.5-12.2-2.8-17.7c-5,2.9-10.3,5.5-15.8,7.9
			C229.2,81.7,229.9,88,230.1,94.9z"/>
	</g>
	<g>
		<path class="stepSvg" d="M190.9,134.3c-1.3-3.5-2.7-7.1-4.3-11c-1.2-2.8-2-5.6-2.9-8.5c-5.7,0.7-11.4,1.2-17.3,1.3
			c1.3,4.9,2.8,9.9,4.8,14.7c0.8,2,1.5,3.8,2.3,5.6C179.4,136,185.2,135.3,190.9,134.3z"/>
	</g>
	<g>
		<path class="stepSvg" d="M230,102.4c-0.2,4.8-0.5,9.7-1.3,14.8c-0.3,2.1-0.7,4.1-1.1,6.2c6.6-2.9,12.8-6.2,18.5-10
			c0.7-6.9,1-13.6,0.8-20C241.7,96.8,236,99.7,230,102.4z"/>
	</g>
	<g>
		<path class="stepSvg" d="M91.1,71.7c3,0.2,7.3,3.6,11.3,10.7c0.3,0.6,0.6,1.3,0.9,2c6.3,0.9,12.7,1.6,19.3,1.9
			c-6.5-18.8-17.6-32-30.1-32.8c-10.9-0.7-22.2,6.2-31.1,18.7c5.4,2.5,11.3,4.6,17.3,6.5C82.9,74.4,87.4,71.7,91.1,71.7z"/>
	</g>
	<g>
		<path class="stepSvg" d="M106.6,91.9c2.7,7.5,4.5,16.2,5,25.7c5.6,0.6,11.2,0.9,17,0.9c-0.3-8.9-1.6-17.5-3.7-25.3
			C118.6,93.1,112.5,92.7,106.6,91.9z"/>
	</g>
	<g>
		<path class="stepSvg" d="M74.2,84.4c-5.7-1.9-11.2-4.1-16.4-6.6c-3.4,5.8-6.4,12.5-8.6,20c4.9,2.9,10.1,5.5,15.6,7.9
			C67.2,97,70.5,89.8,74.2,84.4z"/>
	</g>
	<g>
		<path class="stepSvg" d="M63.2,112.4c-5.5-2.4-10.8-5-15.8-7.9c-1.3,5.6-2.2,11.5-2.8,17.7c5.1,3.4,10.7,6.4,16.5,9.2
			C61.3,124.6,62,118.2,63.2,112.4z"/>
	</g>
	<g>
		<path class="stepSvg" d="M109.2,144.7c5.6,0.6,11.3,1.1,17.2,1.2c1.3-6.9,2-13.7,2.1-20.5c-5.8,0-11.4-0.4-16.9-0.9
			C111.5,131.1,110.7,137.9,109.2,144.7z"/>
	</g>
	<g>
		<path class="stepSvg" d="M62.4,153.8c-0.8-5.1-1.1-10-1.3-14.8c-6-2.7-11.7-5.6-17-9c-0.2,6.4,0,13,0.7,19.9c5.7,3.7,12,7.1,18.6,10
			C63.1,157.9,62.7,155.9,62.4,153.8z"/>
	</g>
	<g>
		<path class="stepSvg" d="M104.6,159.9c-1.6,3.9-3,7.5-4.3,11c5.7,0.9,11.5,1.7,17.5,2.1c0.7-1.8,1.4-3.6,2.3-5.6
			c2-4.8,3.5-9.7,4.8-14.7c-5.9-0.1-11.6-0.6-17.3-1.3C106.7,154.3,105.8,157.1,104.6,159.9z"/>
	</g>
	<g>
		<path class="stepSvg" d="M222.5,116.1c4.7-31.8-3.3-55.3-12.4-66.8c-4-5.1-8-7.4-10.1-7.4c-0.2,0.2-2.8,1.9-5.9,7.4
			c-9,16-12.5,45.6-1.9,71.1c2.8,6.8,5.3,13,7.2,19.2c-7.6,1.7-15.5,2.9-23.6,3.5h24.6c3.2,11.5,4.2,23,1.7,37l-24.3,2
			c-0.8,2.8-1.6,5.7-2.8,8.9c-10.9,30.4,6.5,54.2,28.1,54.3c25.6,0,35.6-25.2,33.9-52c-0.3-5.6-0.3-10.9,0-16l-23.4,1.9
			c0.4-13,2.2-24.7,4.2-36h23.7c1.2-6.9,2.5-13.8,3.7-21.1c-7.9,4.7-16.5,8.7-25.7,12C220.5,128.1,221.6,122.2,222.5,116.1z"/>
	</g>
	<g>
		<path class="stepSvg" d="M113.3,218.7l-24.3-2c-2.5-14-1.5-25.5,1.7-37h24.5c-8.1-0.6-16-1.8-23.6-3.5c1.9-6.1,4.4-12.4,7.2-19.2
			C109.5,131.5,106,102,97,86c-3.1-5.5-5.7-7.3-6.4-7.4c-1.5,0-5.6,2.3-9.6,7.4c-9,11.4-17,34.9-12.4,66.8c0.9,6.2,2,12.1,3,17.9
			c-9.2-3.3-17.9-7.3-25.8-12c1.1,7.3,2.4,14.3,3.7,21.1h23.7c2,11.4,3.8,23.2,4.2,36.1l-23.5-1.9c0.2,5.2,0.3,10.5-0.1,16
			c-1.7,26.8,8.3,52,33.9,52c21.6,0,39-23.8,28.1-54.3C114.9,224.4,114,221.5,113.3,218.7z"/>
	</g>
</g>
</svg>
