<svg version="1.1" id="Слой_1" xmlns="http://www.w3.org/2000/svg" xmlns:xlink="http://www.w3.org/1999/xlink" x="0px" y="0px"
	 viewBox="0 0 300 300" style="enable-background:new 0 0 300 300;" xml:space="preserve">
<g>
	<path class="uslugySvg" d="M6.9,135.1c-3.4-19.9-5.8-28.2-3.4-40c2-9.8,0.9-5,2.2-8.2c0.7-3,4.4-11.5,5-13.2c0.3-0.9,1.3-3.5,0.8-2.1
		c-0.5,1.4,0.9-2.4,1.7-5.6c27.7-65,77.5-77.1,130.2-37.8c11.1,8.2,15.7,2.3,23.4-3.4C197.6,1.9,241.1,3.1,268,27
		c27.6,24.5,38.5,67,28.3,109.4c-5.2,21.6-14.9,40.1-26.7,57.7c-27.5,41.2-65.1,68.5-100.6,98.9c-12,10.3-20,8.6-31.7-0.6
		C84,250.5,33.3,206.3,6.9,135.1z M203,210.3c-0.5-29.4-28.2-64.7-48.3-63.9c-19.8,0.7-45.7,34.5-46.6,60.4
		c-0.6,16,5,23.9,19.1,18.5c19.5-7.3,38.6-6.6,58,0.3C198.6,230.4,202.9,221.5,203,210.3z M115.5,107.9c1.4,13.2,5.5,26.2,19.3,26.2
		c11,0,14.5-11.5,13.6-22.6c-1-13.8-6-26.8-19.6-27C117.4,84.3,115.5,96.1,115.5,107.9z M195.5,107.2c-0.1-12.9-3.4-24.1-14.6-22.7
		c-12.9,1.6-18,14.1-18.3,28.4c-0.2,11.5,3.4,22.5,14.6,21.2C190.6,132.7,194.7,119.9,195.5,107.2z M103.6,169.1
		c8.9-1.1,13.1-7.6,12.2-16.2c-1.6-14-7.3-25.8-21.3-25.7c-8.4,0.1-10.9,8.3-10.1,17.2C85.6,158.2,91.9,166.7,103.6,169.1z
		 M226.8,143.8c-0.2-11-4.4-18-12.3-16.7c-13.1,2.1-19.3,13.2-19.2,27.9c0,9.1,5.1,15.1,13.4,13.4C221,166,225.7,155.4,226.8,143.8z
		"/>
</g>
</svg>
